<svg width="56" height="42" viewBox="0 0 56 42" fill="none" xmlns="http://www.w3.org/2000/svg">
<g id="&#240;&#159;&#166;&#134; emoji &#34;fork and knife with plate&#34;">
<g id="Group">
<path id="Vector" d="M54.6743 10.677C54.6743 5.59564 50.2964 0.279348 50.2964 1.87383C50.2964 3.46832 51.1062 24.6445 51.1062 24.6445L50.2964 38.4923C50.2964 39.4367 51.062 40.2023 52.0064 40.2023C52.9508 40.2023 53.7164 39.4367 53.7164 38.4923L53.2642 24.565C53.2642 24.565 54.6743 15.7583 54.6743 10.677Z" stroke="black" stroke-width="1.71" stroke-miterlimit="10"/>
<g id="Group_2">
<path id="Vector_2" d="M7.90655 2.50636C7.90655 2.50636 8.00188 6.06145 8.00188 9.43681C8.00188 11.9684 7.23298 13.5582 6.13722 14.1949L6.16159 38.4923C6.16159 39.4367 5.39602 40.2023 4.45159 40.2023C3.50716 40.2023 2.74159 39.4367 2.74159 38.4923L3.43482 14.1999C2.33444 13.5665 1.56152 11.975 1.56152 9.43681C1.56152 6.06145 1.65686 2.50636 1.65686 2.50636" stroke="black" stroke-width="1.71" stroke-miterlimit="10" stroke-linecap="round" stroke-linejoin="round"/>
<path id="Vector_3" d="M4.78174 2.50636V10.7014" stroke="black" stroke-width="1.71" stroke-miterlimit="10" stroke-linecap="round" stroke-linejoin="round"/>
<path id="Vector_4" d="M28.9215 36.0025C38.3459 36.0025 45.9858 28.3625 45.9858 18.9381C45.9858 9.51379 38.3459 1.87383 28.9215 1.87383C19.4971 1.87383 11.8572 9.51379 11.8572 18.9381C11.8572 28.3625 19.4971 36.0025 28.9215 36.0025Z" stroke="black" stroke-width="1.71" stroke-miterlimit="10" stroke-linecap="round" stroke-linejoin="round"/>
<path id="Vector_5" d="M28.9252 29.3616C34.6622 29.3616 39.313 24.7108 39.313 18.9738C39.313 13.2368 34.6622 8.586 28.9252 8.586C23.1881 8.586 18.5374 13.2368 18.5374 18.9738C18.5374 24.7108 23.1881 29.3616 28.9252 29.3616Z" stroke="black" stroke-width="1.71" stroke-miterlimit="10" stroke-linecap="round" stroke-linejoin="round"/>
</g>
</g>
</g>
</svg>
