<svg width="130" height="130" viewBox="0 0 130 130" fill="none" xmlns="http://www.w3.org/2000/svg">
<g id="&#240;&#159;&#166;&#134; icon &#34;cross&#34;">
<path id="Vector" fill-rule="evenodd" clip-rule="evenodd" d="M127.323 10.0129C129.612 7.72236 129.612 4.00859 127.323 1.71802C125.031 -0.572673 121.317 -0.572673 119.026 1.71802L64.52 56.2249L10.0129 1.71802C7.72236 -0.572673 4.00859 -0.572673 1.71802 1.71802C-0.572673 4.00859 -0.572673 7.72236 1.71802 10.0129L56.2249 64.52L1.71802 119.026C-0.572673 121.317 -0.572673 125.031 1.71802 127.323C4.00859 129.612 7.72236 129.612 10.0129 127.323L64.52 72.815L119.026 127.323C121.317 129.612 125.031 129.612 127.323 127.323C129.612 125.031 129.612 121.317 127.323 119.026L72.815 64.52L127.323 10.0129Z" fill="black"/>
</g>
</svg>
