<svg width="20" height="20" viewBox="0 0 20 20" fill="none" xmlns="http://www.w3.org/2000/svg">
<g id="&#240;&#159;&#166;&#134; icon &#34;envelope-alt&#34;">
<path id="Vector" d="M17 0H3C2.20435 0 1.44129 0.395088 0.87868 1.09835C0.316071 1.80161 0 2.75544 0 3.75V16.25C0 17.2446 0.316071 18.1984 0.87868 18.9017C1.44129 19.6049 2.20435 20 3 20H17C17.7956 20 18.5587 19.6049 19.1213 18.9017C19.6839 18.1984 20 17.2446 20 16.25V3.75C20 2.75544 19.6839 1.80161 19.1213 1.09835C18.5587 0.395088 17.7956 0 17 0ZM3 2.5H17C17.2652 2.5 17.5196 2.6317 17.7071 2.86612C17.8946 3.10054 18 3.41848 18 3.75L10 9.85L2 3.75C2 3.41848 2.10536 3.10054 2.29289 2.86612C2.48043 2.6317 2.73478 2.5 3 2.5ZM18 16.25C18 16.5815 17.8946 16.8995 17.7071 17.1339C17.5196 17.3683 17.2652 17.5 17 17.5H3C2.73478 17.5 2.48043 17.3683 2.29289 17.1339C2.10536 16.8995 2 16.5815 2 16.25V6.6L9.48 12.3125C9.63202 12.4222 9.80446 12.48 9.98 12.48C10.1555 12.48 10.328 12.4222 10.48 12.3125L18 6.6V16.25Z" fill="#8839EF"/>
</g>
</svg>
