<svg width="54" height="57" viewBox="0 0 54 57" fill="none" xmlns="http://www.w3.org/2000/svg">
<g id="&#240;&#159;&#166;&#134; icon &#34;headset&#34;">
<path id="Vector" d="M25.3475 0.643376C11.2431 1.5581 0.561523 13.9216 0.561523 28.0555V47.7958C0.561523 52.694 4.51548 56.6479 9.41366 56.6479H12.3644C15.6102 56.6479 18.2658 53.9923 18.2658 50.7465V38.9436C18.2658 35.6979 15.6102 33.0422 12.3644 33.0422H6.46295V27.9965C6.46295 16.6658 15.1971 6.81037 26.4983 6.48579C38.2126 6.16121 47.7729 15.515 47.7729 27.1408V33.0422H41.8715C38.6257 33.0422 35.9701 35.6979 35.9701 38.9436V50.7465C35.9701 53.9923 38.6257 56.6479 41.8715 56.6479H44.8222C49.7204 56.6479 53.6744 52.694 53.6744 47.7958V27.1408C53.6744 11.8856 40.8093 -0.359867 25.3475 0.643376Z" fill="black"/>
</g>
</svg>
