<svg width="61" height="74" viewBox="0 0 61 74" fill="none" xmlns="http://www.w3.org/2000/svg">
<g id="&#240;&#159;&#166;&#134; icon &#34;plant&#34;">
<g id="Group">
<path id="Vector" d="M30.4363 20.4977C30.4363 20.4977 20.2284 21.5152 14.8833 17.0609C9.53821 12.6067 10.7592 4.10007 10.7592 4.10007C10.7592 4.10007 20.9672 3.08253 26.3124 7.53681C31.6576 11.991 30.4363 20.4977 30.4363 20.4977Z" stroke="black" stroke-width="6.63911" stroke-linecap="round" stroke-linejoin="round"/>
<path id="Vector_2" d="M30.6765 20.4977C30.6765 20.4977 40.8845 21.5152 46.2296 17.0609C51.5748 12.6067 50.3535 4.10007 50.3535 4.10007C50.3535 4.10007 40.1456 3.08253 34.8004 7.53681C29.4553 11.991 30.6765 20.4977 30.6765 20.4977Z" stroke="black" stroke-width="6.63911" stroke-linecap="round" stroke-linejoin="round"/>
<path id="Vector_3" d="M4 33.876C4 32.0426 5.48623 30.5564 7.31955 30.5564H53.7933C55.6267 30.5564 57.1128 32.0426 57.1128 33.876V40.5151C57.1128 42.3485 55.6267 43.8346 53.7933 43.8346H7.31955C5.48623 43.8346 4 42.3485 4 40.5151V33.876Z" stroke="black" stroke-width="6.63911" stroke-linecap="round" stroke-linejoin="round"/>
<path id="Vector_4" d="M7.31958 43.8346H53.7933L47.1542 70.391H13.9587L7.31958 43.8346Z" stroke="black" stroke-width="6.63911" stroke-linecap="round" stroke-linejoin="round"/>
</g>
</g>
</svg>
