<svg width="20" height="20" viewBox="0 0 20 20" fill="none" xmlns="http://www.w3.org/2000/svg">
<g id="&#240;&#159;&#166;&#134; icon &#34;file resume&#34;">
<path id="Vector" d="M18.3333 0H1.66675C0.75025 0 0 0.75025 0 1.66675V18.3335C0 19.2498 0.75025 20 1.66675 20H18.3335C19.2498 20 20 19.2498 20 18.3333V1.66675C20 0.75025 19.2498 0 18.3333 0ZM4.16675 6.66675C4.16675 5.2865 5.2865 4.16675 6.66675 4.16675C8.047 4.16675 9.16675 5.2865 9.16675 6.66675H7.5C7.5 6.20625 7.12675 5.8335 6.66675 5.8335C6.20675 5.8335 5.8335 6.20625 5.8335 6.66675V9.99925C5.8335 10.459 6.2065 10.8325 6.66675 10.8325C7.127 10.8325 7.5 10.459 7.5 9.99925H9.16675C9.16675 11.3803 8.047 12.4993 6.66675 12.4993C5.2865 12.4993 4.16675 11.38 4.16675 9.99925V6.66675ZM15.8333 15.8333H4.16675V14.1667H15.8335L15.8333 15.8333ZM13.75 12.5H12.0833L10 4.16675H11.718L12.9167 8.96175L14.1155 4.16675H15.8333L13.75 12.5Z" fill="#8839EF"/>
</g>
</svg>
