<svg xmlns="http://www.w3.org/2000/svg" width="120" height="122" viewBox="0 0 120 122" fill="none">
  <path fill-rule="evenodd" clip-rule="evenodd" d="M115.84 111.978C115.84 115.495 113.002 118.346 109.513 118.346H68.196L5.6669 46.8838C3.3625 44.2502 3.45941 40.0468 5.88293 37.4957C5.88293 37.4957 6.84504 36.483 7.34162 35.9603C9.41582 33.7769 14.1995 29.4102 14.1995 29.4102L74.5485 102.464H115.84V111.978Z" stroke="#35424C" stroke-width="6.35253" stroke-linecap="square"/>
  <path d="M115.84 99.288C115.84 89.7592 112.284 80.2304 99.9588 80.2304H90.6841L77.7249 32.5864C77.7249 32.5864 65.0198 45.2915 52.3148 32.5864C39.6097 19.8813 42.786 4 42.786 4L14.1996 29.4101" stroke="#35424C" stroke-width="6.35253" stroke-linecap="round" stroke-linejoin="round"/>
  <path d="M77.7249 48.4677L49.1385 64.349" stroke="#35424C" stroke-width="6.35253" stroke-linecap="square"/>
  <path d="M80.9012 64.3491L58.6674 77.0541" stroke="#35424C" stroke-width="6.35253" stroke-linecap="square"/>
  <path d="M4.67078 89.7592H17.3758" stroke="#35424C" stroke-width="6.35253" stroke-linecap="round" stroke-linejoin="round"/>
  <path d="M4.67078 102.464H30.0809" stroke="#35424C" stroke-width="6.35253" stroke-linecap="round" stroke-linejoin="round"/>
  <path d="M4.67078 115.169H42.786" stroke="#35424C" stroke-width="6.35253" stroke-linecap="round" stroke-linejoin="round"/>
</svg>